<?xml version="1.0" encoding="utf-8"?>
<!-- Generator: Adobe Illustrator 15.1.0, SVG Export Plug-In . SVG Version: 6.00 Build 0)  -->
<!DOCTYPE svg PUBLIC "-//W3C//DTD SVG 1.1//EN" "http://www.w3.org/Graphics/SVG/1.1/DTD/svg11.dtd">
<svg version="1.1" id="Layer_1" xmlns="http://www.w3.org/2000/svg" xmlns:xlink="http://www.w3.org/1999/xlink" x="0px" y="0px"
	 width="20px" height="20px" viewBox="0 0 20 20" enable-background="new 0 0 20 20" xml:space="preserve">
<g display="none">
	<g id="Ellipse_1" display="inline">
		<g>
			<ellipse fill="#656565" cx="9.992" cy="9.935" rx="9.717" ry="9.762"/>
		</g>
	</g>
	<g id="Screen" display="inline">
		<g>
			<path fill="#FFFFFF" d="M5.245,5.005v10.453h2.944l0.786-0.787H6.03V6.583h7.853v1.183c0,0,0.287-0.591,0.786-0.591v-2.17H5.245z
				 M13.883,14.671h-0.98l-0.784,0.787h2.552v-2.367l-0.786,0.789L13.883,14.671L13.883,14.671z"/>
		</g>
	</g>
	<g id="Spanner" display="inline">
		<g>
			<polygon fill="#FFFFFF" points="15.458,10.386 14.439,9.378 15.923,7.894 13.957,8.011 12.805,9.167 12.812,10.906 8.112,15.616 
				8.147,16.24 8.641,16.732 9.264,16.77 13.967,12.061 15.715,12.07 16.867,10.904 16.949,8.892 			"/>
		</g>
	</g>
</g>
<g display="none">
	<g id="Ellipse_1_1_" display="inline">
		<g>
			<ellipse fill="#656565" cx="9.853" cy="9.935" rx="9.717" ry="9.762"/>
		</g>
	</g>
	<g id="Screen_1_" display="inline">
		<g>
			<path fill="#FFFFFF" d="M5.105,5.005v10.454H8.05l0.786-0.789H5.891V6.583h7.852v1.184c0,0,0.286-0.592,0.786-0.592v-2.17H5.105z
				 M13.743,14.67h-0.979l-0.785,0.789h2.551v-2.368l-0.785,0.79L13.743,14.67L13.743,14.67z"/>
		</g>
	</g>
	<g id="Spanner_1_" display="inline">
		<g>
			<polygon fill="#FFFFFF" points="15.318,10.386 14.301,9.378 15.783,7.894 13.816,8.012 12.664,9.167 12.673,10.907 7.972,15.615 
				8.008,16.24 8.501,16.734 9.125,16.771 13.826,12.062 15.574,12.07 16.729,10.904 16.811,8.892 			"/>
		</g>
	</g>
</g>
<g>
	<g id="Shape_4">
		<g>
			<polygon fill="#FFFFFF" points="3.431,0.055 0.653,2.833 0.653,19.73 15.468,19.73 15.468,3.528 3.198,3.528 4.818,1.673 
				17.085,1.673 17.085,17.882 18.708,16.49 18.708,0.055 			"/>
		</g>
	</g>
</g>
</svg>
