<?xml version="1.0" encoding="utf-8"?>
<!-- Generator: Adobe Illustrator 15.1.0, SVG Export Plug-In . SVG Version: 6.00 Build 0)  -->
<!DOCTYPE svg PUBLIC "-//W3C//DTD SVG 1.1//EN" "http://www.w3.org/Graphics/SVG/1.1/DTD/svg11.dtd">
<svg version="1.1" id="Layer_1" xmlns="http://www.w3.org/2000/svg" xmlns:xlink="http://www.w3.org/1999/xlink" x="0px" y="0px"
	 width="20px" height="20px" viewBox="0 0 20 20" enable-background="new 0 0 20 20" xml:space="preserve">
<g id="Screen">
	<g>
		<path fill="#FFFFFF" d="M0.266,0v17.788h5.01l1.337-1.34H1.601V2.686h13.363v2.013c0,0,0.489-1.006,1.339-1.006V0H0.266z
			 M14.964,16.448h-1.668l-1.334,1.34h4.342v-4.029l-1.337,1.344v1.346H14.964z"/>
	</g>
</g>
<g id="Spanner">
	<g>
		<polygon fill="#FFFFFF" points="17.645,9.156 15.912,7.441 18.437,4.917 15.092,5.115 13.131,7.083 13.144,10.042 5.144,18.058 
			5.204,19.118 6.045,19.957 7.105,20.02 15.107,12.006 18.082,12.023 20.043,10.039 20.183,6.615 		"/>
	</g>
</g>
</svg>
